<svg xmlns="http://www.w3.org/2000/svg" width="169.676" height="26.902" viewBox="0 0 169.676 26.902">
    <path d="M388 74.19l-7.447-21.473a2.925 2.925 0 0 1-.248-1.055 1.815 1.815 0 0 1 1.862-1.8 1.967 1.967 0 0 1 1.862 1.552l6.144 18.494 6.206-18.556a1.907 1.907 0 0 1 1.8-1.489h.186a1.871 1.871 0 0 1 1.862 1.489l6.144 18.556 6.268-18.618a1.8 1.8 0 0 1 1.738-1.489 1.749 1.749 0 0 1 1.8 1.738 2.925 2.925 0 0 1-.248 1.055l-7.447 21.535a2.19 2.19 0 0 1-1.986 1.738h-.124a2.084 2.084 0 0 1-1.986-1.738L398.3 55.882l-6.144 18.246a2.084 2.084 0 0 1-1.986 1.738h-.124A2.135 2.135 0 0 1 388 74.19" transform="translate(-315.073 -49.274)"/>
    <path d="M479.9 51.724a1.87 1.87 0 0 1 1.8-1.924 1.844 1.844 0 0 1 1.862 1.924v4.344c1.8-4.22 5.772-6.206 8.44-6.206a1.761 1.761 0 0 1 1.8 1.924 1.847 1.847 0 0 1-1.614 1.924c-4.717.621-8.627 4.282-8.627 11.605v8.626a1.831 1.831 0 0 1-1.8 1.924 1.881 1.881 0 0 1-1.862-1.924z" transform="translate(-352.86 -49.274)"/>
    <path d="M520.915 61.53c-.372-4.592-2.855-8.564-7.7-8.564-4.158 0-7.323 3.662-7.82 8.564zm-7.137 14.584c-6.578 0-11.978-5.337-11.978-13.095v-.124c0-7.261 4.9-13.095 11.543-13.095 7.075 0 11.171 6.082 11.171 12.785a1.683 1.683 0 0 1-1.676 1.738h-17.376c.5 5.461 4.158 8.5 8.44 8.5a9.563 9.563 0 0 0 6.889-2.917 1.464 1.464 0 0 1 .993-.434 1.59 1.59 0 0 1 1.551 1.614 1.755 1.755 0 0 1-.558 1.241 11.8 11.8 0 0 1-9 3.786" transform="translate(-361.169 -49.274)"/>
    <path d="M456.2 66.284V63.8a24.22 24.22 0 0 0-7.2-1.055c-4.593 0-7.137 2.048-7.137 5.275v.124c0 3.165 2.855 5.027 6.144 5.027 4.531-.062 8.192-2.855 8.192-6.889m-18 1.924v-.124c0-5.337 4.282-8.192 10.426-8.192a25.725 25.725 0 0 1 7.509 1.055v-.869c0-4.53-2.731-6.889-7.261-6.889a11.6 11.6 0 0 0-5.71 1.179 1.455 1.455 0 0 1-.683.124 1.643 1.643 0 0 1-1.614-1.614 1.5 1.5 0 0 1 .993-1.552 16.1 16.1 0 0 1 7.323-1.427c3.475 0 6.082.931 7.882 2.793 1.676 1.738 2.482 4.158 2.482 7.385V74.1a1.766 1.766 0 0 1-1.738 1.862 1.7 1.7 0 0 1-1.738-1.738v-2.42a10.53 10.53 0 0 1-8.813 4.344c-4.468 0-9.061-2.731-9.061-7.944" transform="translate(-337.04 -49.312)"/>
    <path d="M281.9 51.092a3.431 3.431 0 0 0-4.655-1.8 3.5 3.5 0 0 0-1.676 4.779l7.758 17.5c1.241 2.731 2.482 4.158 4.9 4.158 2.606 0 3.724-1.552 4.9-4.158 0 0 6.765-15.267 6.827-15.453a1 1 0 0 1 .993-.683 1.1 1.1 0 0 1 1.055 1.117V71.51c0 2.3 1.241 4.22 3.6 4.22s3.661-1.862 3.661-4.22v-12.1a3.7 3.7 0 0 1 3.848-3.91 3.635 3.635 0 0 1 3.724 3.91v12.224c0 2.3 1.241 4.22 3.6 4.22s3.662-1.862 3.662-4.22V59.408a3.7 3.7 0 0 1 3.848-3.91 3.635 3.635 0 0 1 3.724 3.91v12.226c0 2.3 1.241 4.22 3.6 4.22s3.662-1.862 3.662-4.22V57.671a8.571 8.571 0 0 0-8.751-8.689 11.061 11.061 0 0 0-7.758 3.413c-1.613-2.11-3.786-3.413-7.447-3.413-3.91 0-7.323 3.413-7.323 3.413a8.752 8.752 0 0 0-6.516-3.413c-3.475 0-6.206 1.552-7.882 5.585l-4.965 12.1z" transform="translate(-275.198 -48.953)"/>
    <path d="M544.261 52.965a2.453 2.453 0 0 0-2.42-2.544 2.492 2.492 0 0 0-2.42 2.544 2.453 2.453 0 0 0 2.42 2.544 2.491 2.491 0 0 0 2.42-2.544m-5.461 0a3.043 3.043 0 1 1 6.082 0 3.074 3.074 0 0 1-3.041 3.165 3.155 3.155 0 0 1-3.041-3.165" transform="translate(-375.206 -49.274)"/>
    <path d="M543.1 53.827a.443.443 0 0 0 .5-.434c0-.31-.186-.434-.5-.434h-.621v.869zm-1.3-1.117a.293.293 0 0 1 .31-.31h.993a1.228 1.228 0 0 1 .869.31.934.934 0 0 1 .248.683 1 1 0 0 1-.559.931l.434.559a.322.322 0 0 1 .124.248.293.293 0 0 1-.31.31.341.341 0 0 1-.31-.186l-.621-.807h-.5v.683a.31.31 0 1 1-.62 0V52.71z" transform="translate(-376.345 -50.261)"/>
</svg>
