<svg xmlns="http://www.w3.org/2000/svg" width="99.758" height="59.641" viewBox="0 0 99.758 59.641">
    <defs>
        <style>
            .cls-2{fill:#f90}
        </style>
    </defs>
    <g id="Grupo_538" transform="translate(0)">
        <path id="Trazado_562" fill="#252f3e" d="M2719.018 44.859a9.685 9.685 0 0 0 .372 2.979 15.4 15.4 0 0 0 1.055 2.358 1.319 1.319 0 0 1 .248.745 1.284 1.284 0 0 1-.62.993l-2.11 1.365a1.847 1.847 0 0 1-.869.31 1.756 1.756 0 0 1-.993-.434 12.775 12.775 0 0 1-1.179-1.552c-.311-.559-.683-1.179-1.055-1.986a12.316 12.316 0 0 1-9.743 4.593 9.231 9.231 0 0 1-6.641-2.358A8.649 8.649 0 0 1 2695 45.48a8.524 8.524 0 0 1 3.041-6.827 12.066 12.066 0 0 1 8.13-2.607c1.117 0 2.3.124 3.537.248 1.241.186 2.483.434 3.786.745v-2.42c0-2.544-.559-4.282-1.552-5.337-1.055-1.055-2.855-1.552-5.4-1.552a14.626 14.626 0 0 0-3.6.434 34.6 34.6 0 0 0-3.6 1.117 7.5 7.5 0 0 1-1.179.434 2.3 2.3 0 0 1-.559.124c-.434 0-.683-.31-.683-1.055v-1.612a1.961 1.961 0 0 1 .248-1.179 2.39 2.39 0 0 1 .931-.683 17.121 17.121 0 0 1 4.158-1.489 19.867 19.867 0 0 1 5.151-.621c3.972 0 6.827.869 8.689 2.669 1.8 1.8 2.73 4.53 2.73 8.13v10.736h.186zm-13.468 5.089a9.7 9.7 0 0 0 3.414-.621 7.494 7.494 0 0 0 3.165-2.11 4.644 4.644 0 0 0 1.117-2.11 12.538 12.538 0 0 0 .31-2.855v-1.365a22.068 22.068 0 0 0-3.041-.559 26.831 26.831 0 0 0-3.1-.186 7.906 7.906 0 0 0-4.965 1.3 4.518 4.518 0 0 0-1.614 3.786 4.566 4.566 0 0 0 1.241 3.537 5 5 0 0 0 3.475 1.179zm26.624 3.537a2 2 0 0 1-1.241-.31 2.776 2.776 0 0 1-.683-1.3l-7.819-25.631a8.313 8.313 0 0 1-.31-1.3c0-.559.248-.807.807-.807h3.227a2.22 2.22 0 0 1 1.3.31 3.486 3.486 0 0 1 .683 1.3l5.585 21.97 5.151-21.97a2.508 2.508 0 0 1 .62-1.3 2.364 2.364 0 0 1 1.3-.31h2.669a2.219 2.219 0 0 1 1.3.31 2.309 2.309 0 0 1 .621 1.3l5.213 22.218 5.71-22.218a2.476 2.476 0 0 1 .682-1.3 2.22 2.22 0 0 1 1.3-.31h3.1c.559 0 .807.248.807.807 0 .186-.062.31-.062.559-.062.186-.125.434-.248.807l-7.986 25.624a2.476 2.476 0 0 1-.683 1.3 2.134 2.134 0 0 1-1.241.31h-2.855a2.219 2.219 0 0 1-1.3-.31 2.547 2.547 0 0 1-.62-1.3l-5.151-21.411-5.089 21.349a2.512 2.512 0 0 1-.62 1.3 1.936 1.936 0 0 1-1.3.31zm42.636.931a19.709 19.709 0 0 1-5.089-.621 13.153 13.153 0 0 1-3.786-1.3 2.666 2.666 0 0 1-1.055-.931 2.478 2.478 0 0 1-.186-.931v-1.678c0-.683.248-1.055.745-1.055a2.73 2.73 0 0 1 .621.124c.186.062.5.186.807.31a18 18 0 0 0 7.634 1.552 8.728 8.728 0 0 0 4.841-1.117 3.641 3.641 0 0 0 1.738-3.165 3.294 3.294 0 0 0-.869-2.3 8.608 8.608 0 0 0-3.351-1.738l-4.779-1.489a9.884 9.884 0 0 1-5.337-3.413 7.865 7.865 0 0 1-1.676-4.779 7.78 7.78 0 0 1 .868-3.662 9.044 9.044 0 0 1 2.359-2.731 11.4 11.4 0 0 1 3.475-1.738 15.285 15.285 0 0 1 4.158-.559c.745 0 1.49.062 2.234.124.745.124 1.489.248 2.172.372a13.237 13.237 0 0 1 1.862.559 7.2 7.2 0 0 1 1.365.621 3.468 3.468 0 0 1 .993.807 1.842 1.842 0 0 1 .31 1.117v1.552c0 .683-.248 1.055-.745 1.055a3.633 3.633 0 0 1-1.241-.372 15.08 15.08 0 0 0-6.392-1.3 8.621 8.621 0 0 0-4.406.931 3.3 3.3 0 0 0-1.551 2.979 3.052 3.052 0 0 0 .993 2.358 9.9 9.9 0 0 0 3.662 1.8l4.717 1.489a10.2 10.2 0 0 1 5.151 3.165 7.386 7.386 0 0 1 1.552 4.655 8.57 8.57 0 0 1-.869 3.848 9.1 9.1 0 0 1-2.42 2.917 11.33 11.33 0 0 1-3.662 1.862 18.243 18.243 0 0 1-4.841.683z" transform="translate(-2690.879 -23.2)"/>
        <path id="Trazado_563" d="M2778.56 94.424c-10.924 8.068-26.749 12.35-40.4 12.35a73.223 73.223 0 0 1-49.337-18.8c-1.055-.931-.125-2.172 1.116-1.489a99.805 99.805 0 0 0 49.338 13.095 99.247 99.247 0 0 0 37.671-7.7c1.862-.807 3.414 1.241 1.615 2.545z" class="cls-2" transform="translate(-2688.361 -47.133)"/>
        <path id="Trazado_564" d="M2832.634 88.073c-1.365-1.8-9.248-.869-12.785-.434-1.055.124-1.241-.807-.248-1.489 6.206-4.406 16.508-3.1 17.688-1.676 1.179 1.489-.31 11.73-6.144 16.632-.87.745-1.738.372-1.366-.621 1.303-3.227 4.282-10.674 2.855-12.412z" class="cls-2" transform="translate(-2737.905 -45.934)"/>
    </g>
</svg>
