<svg xmlns="http://www.w3.org/2000/svg" width="171.225" height="58.523" viewBox="0 0 171.225 58.523">
    <defs>
        <style>
            .cls-1{fill:#e2231a}
        </style>
    </defs>
    <g id="Grupo_542" transform="translate(0)">
        <path id="Trazado_583" d="M3864.4 41.209c.124-.372.186-.807.31-1.179a10.2 10.2 0 0 1 3.29-5.461 10.464 10.464 0 0 1 5.338-2.545 9.231 9.231 0 0 1 1.3-.124h12.846a10.505 10.505 0 0 1 6.082 1.862 10.178 10.178 0 0 1 4.344 6.578 10.622 10.622 0 0 1-8.44 12.66 9.631 9.631 0 0 1-1.923.186h-12.537a10.37 10.37 0 0 1-6.516-2.234 10.775 10.775 0 0 1-3.972-6.516c-.062-.186-.062-.31-.124-.5zm16.755-5.4h-6.144a6.376 6.376 0 0 0-4.344 1.8 6.58 6.58 0 0 0-2.172 5.71 6.361 6.361 0 0 0 1.8 3.972 6.9 6.9 0 0 0 5.337 2.234h11.17a4.65 4.65 0 0 0 1.3-.124 7.048 7.048 0 0 0 4.345-2.482 6.739 6.739 0 0 0 1.489-5.213 6.586 6.586 0 0 0-2.536-4.406 6.236 6.236 0 0 0-3.972-1.427c-2.114-.063-4.228-.063-6.272-.063z" class="cls-1" transform="translate(-3864.4 -31.714)"/>
        <path id="Trazado_584" d="M3978.86 31.662a3.666 3.666 0 0 1 1.861 1.365c.373.621.745 1.179 1.117 1.8 2.048 3.165 4.034 6.33 6.082 9.433 1.676 2.544 3.289 5.151 4.9 7.7.249.372.435.745.683 1.117-.125 0-.187.062-.249.062h-4.345a.5.5 0 0 1-.5-.248l-1.862-3.165a.668.668 0 0 0-.683-.372h-10.115a.885.885 0 0 1-.745-.372c-.62-.993-1.3-2.048-1.986-3.041-.062-.062-.062-.186-.125-.31h10.861c-1.924-3.1-3.785-6.144-5.709-9.247l-2.606 4.1c-.993 1.552-1.986 3.1-2.917 4.655-1.614 2.545-3.227 5.089-4.779 7.633a.623.623 0 0 1-.621.372h-4.522c.186-.31.31-.559.433-.807 1.3-2.048 2.669-4.1 3.972-6.144l6.517-10.24c.683-1.117 1.428-2.172 2.173-3.289a2.878 2.878 0 0 1 1.427-.931c.062 0 .062-.062.124-.124a14.025 14.025 0 0 0 1.614.053z" class="cls-1" transform="translate(-3901.656 -31.6)"/>
        <path id="Trazado_585" d="M3864.4 83.6h165.144v1.241H3864.4z" transform="translate(-3864.4 -51.328)"/>
        <path id="Trazado_586" d="M3987.916 116.926a11.609 11.609 0 0 1-1.365-.434 5.429 5.429 0 0 1-3.475-3.848 10.657 10.657 0 0 1-.31-3.972 8.088 8.088 0 0 1 .931-3.165 5.642 5.642 0 0 1 4.343-2.979 7.833 7.833 0 0 1 4.593.559 5.037 5.037 0 0 1 2.3 2.11 8.41 8.41 0 0 1 1.118 3.662 9.46 9.46 0 0 1-.87 4.9 5.655 5.655 0 0 1-4.281 3.165.061.061 0 0 0-.062.062c-.998-.06-1.929-.06-2.922-.06zm-2.048-7.2c.062.745.124 1.427.249 2.172.434 1.862 1.489 3.041 3.661 2.855a2.839 2.839 0 0 0 2.482-1.862 8.341 8.341 0 0 0 .373-5.213 3.282 3.282 0 0 0-3.724-2.917 3.135 3.135 0 0 0-2.544 1.986 7.9 7.9 0 0 0-.497 2.98z" transform="translate(-3909.284 -58.465)"/>
        <path id="Trazado_587" d="M4013.047 117.15c-.62-.124-1.241-.248-1.861-.434a4.387 4.387 0 0 1-3.1-3.972c-.062-3.227 0-6.454 0-9.744h2.979v8.751a3.909 3.909 0 0 0 .435 1.862 2.272 2.272 0 0 0 1.986 1.179 3.944 3.944 0 0 0 2.233-.31 2.366 2.366 0 0 0 1.366-2.234V103h3.041v8.626a5.427 5.427 0 0 1-.62 2.793 5.085 5.085 0 0 1-3.1 2.42l-1.489.372c-.627-.061-1.249-.061-1.87-.061z" transform="translate(-3918.901 -58.689)"/>
        <path id="Trazado_588" d="M3948.3 117.039a9.588 9.588 0 0 1-1.427-.434 5.318 5.318 0 0 1-2.978-3.041 8.368 8.368 0 0 1-.622-4.1 7.487 7.487 0 0 1 2.172-5.213 5.755 5.755 0 0 1 3.227-1.489 6.918 6.918 0 0 1 3.166.31 4.308 4.308 0 0 1 2.979 3.413c.062.248.062.559.124.869h-3.041a6.025 6.025 0 0 0-.807-1.676 2.289 2.289 0 0 0-3.6.372 5.983 5.983 0 0 0-.993 3.227 8.539 8.539 0 0 0 .373 3.537 2.578 2.578 0 0 0 2.544 1.986 2.42 2.42 0 0 0 2.3-2.3v-.31h3.228a4.786 4.786 0 0 1-.931 3.041 4.908 4.908 0 0 1-3.042 1.738l-.062.062z" transform="translate(-3894.311 -58.577)"/>
        <path id="Trazado_589" d="M4137.332 34.827a2.549 2.549 0 0 1-.434.683 2.195 2.195 0 0 1-2.11 1.055 2.307 2.307 0 0 1-2.234-1.862 2.413 2.413 0 0 1 2.047-2.979c.063 0 .063-.062.125-.124h.434c.248.062.5.186.745.248a2.616 2.616 0 0 1 1.427 1.614zm-1.116.621a1.53 1.53 0 0 0 .558-1.365 1.908 1.908 0 0 0-1.489-1.738 1.846 1.846 0 0 0-1.489 3.289 1.809 1.809 0 0 0 2.42-.186z" class="cls-1" transform="translate(-3966.107 -31.6)"/>
        <path id="Trazado_590" d="M3926.158 53.287H3922V32h18.122a6.676 6.676 0 0 1 4.157 1.489 7.219 7.219 0 0 1-3.041 12.785c-.931.124-1.924.186-2.979.248l8.006 6.7c-.187 0-.311.062-.435.062h-4.841a1.79 1.79 0 0 1-1.241-.434c-.745-.683-1.551-1.365-2.358-2.048-1.055-.931-2.171-1.862-3.228-2.793-.745-.683-1.489-1.3-2.234-1.986-1.118-.931-2.172-1.862-3.29-2.793-.186-.186-.372-.31-.558-.5 0-.062 0-.062.063-.124h11.419a3.341 3.341 0 0 0 2.979-1.738 3.1 3.1 0 0 0 0-3.413 3.143 3.143 0 0 0-2.854-1.676h-13.53z" class="cls-1" transform="translate(-3886.253 -31.752)"/>
        <path id="Trazado_591" d="M4093.467 40.751h19.86a21.614 21.614 0 0 0-1.862 2.979 1.582 1.582 0 0 1-1.676.869c-5.275-.062-10.488 0-15.763 0h-.683c.435.745.744 1.489 1.179 2.11a6.725 6.725 0 0 0 4.468 2.731 11.076 11.076 0 0 0 1.427.124h14.336c-.558.869-1.055 1.614-1.552 2.42l-.062.062c-.373 1.117-1.179 1.3-2.3 1.3-3.847-.062-7.633 0-11.481-.062a10.324 10.324 0 0 1-6.454-2.358 10.1 10.1 0 0 1-3.352-4.841 12.742 12.742 0 0 1-.5-2.669 9.6 9.6 0 0 1 .435-3.972 10.607 10.607 0 0 1 1.676-3.351 10.032 10.032 0 0 1 3.785-3.041 10.269 10.269 0 0 1 4.477-1.052h14.9q-.651 1.117-1.3 2.048a10.254 10.254 0 0 0-.868 1.365.67.67 0 0 1-.683.372h-11.614a6.8 6.8 0 0 0-6.455 4.593.923.923 0 0 1 .062.373z" class="cls-1" transform="translate(-3949.61 -31.752)"/>
        <path id="Trazado_592" d="M4034.358 31.983c-.807 1.3-1.614 2.482-2.359 3.662-.062.124-.31.124-.5.124h-11.539a6.722 6.722 0 0 0-5.151 2.231 6.759 6.759 0 0 0 .373 9.5 6.144 6.144 0 0 0 4.22 1.862c4.965.062 9.93.062 14.9.124h.372a22.842 22.842 0 0 0-1.613 2.607 2.083 2.083 0 0 1-2.235 1.179c-3.786-.062-7.571 0-11.357-.062a10.452 10.452 0 0 1-6.763-2.482 9.985 9.985 0 0 1-3.6-6.206 10.514 10.514 0 0 1 1.986-8.316 10.236 10.236 0 0 1 5.028-3.662 10.545 10.545 0 0 1 3.1-.559c4.84-.062 9.743 0 14.584 0z" class="cls-1" transform="translate(-3919.234 -31.735)"/>
        <path id="Trazado_593" d="M4057.458 49.477h19.115c-.372.621-.682 1.117-1.055 1.676-.372.621-.807 1.241-1.179 1.862-.124.248-.311.31-.621.31h-18.184a2.151 2.151 0 0 1-2.234-2.234V32.1h4.158z" class="cls-1" transform="translate(-3936.067 -31.79)"/>
        <path id="Trazado_594" d="M4033.1 116.864V102.9c.869.062 1.676.062 2.483.124h2.047a10.376 10.376 0 0 1 3.352.434 5.234 5.234 0 0 1 3.6 3.91 8.907 8.907 0 0 1-.187 5.4 5.516 5.516 0 0 1-4.282 3.91 7.156 7.156 0 0 1-1.614.186zm3.1-11.605v9.309c.807-.062 1.551-.062 2.358-.124a3.038 3.038 0 0 0 2.544-1.738 6.866 6.866 0 0 0 .311-4.965 3.114 3.114 0 0 0-1.738-2.11 8.235 8.235 0 0 0-3.475-.373z" transform="translate(-3928.403 -58.651)"/>
        <path id="Trazado_595" d="M3966.462 103h3.1v11.481h5.9v2.42h-9.062c.062-4.654.062-9.246.062-13.901z" transform="translate(-3903.098 -58.689)"/>
        <path id="Trazado_596" d="M4137.172 35.993c-.621.186-.93-.124-1.116-.683a1.652 1.652 0 0 0-.311-.372c-.061 0-.061.062-.123.062v.931H4135V33.2c.5.062.932.062 1.428.124.31.062.433.372.5.621a1.1 1.1 0 0 1-.436.931c.25.434.5.807.683 1.117zm-1.55-2.3v.931a5.843 5.843 0 0 0 .62-.31c.063-.062.063-.31.063-.31-.188-.121-.436-.183-.683-.304z" class="cls-1" transform="translate(-3967.063 -32.207)"/>
    </g>
</svg>
