<svg xmlns="http://www.w3.org/2000/svg" width="187.106" height="54.377" viewBox="0 0 187.106 54.377">
    <defs>
        <style>
            .cls-1{fill:#035bda;fill-rule:evenodd}
        </style>
    </defs>
    <g id="Grupo_522" transform="translate(0 0)">
        <g id="Grupo_484" transform="translate(0 0)">
            <path id="path7291" d="M2909.291 40.9l-10.323 20.758 18.107 21.04-33.675 3.836 52.234.564-26.343-46.2z" class="cls-1" transform="translate(-2866.083 -32.721)"/>
            <path id="path7293" d="M2893.878 26.4l-23.635 19.8-17.543 29.614 14.948-1.523z" class="cls-1" transform="translate(-2852.7 -26.4)"/>
            <path id="text7295" fill="#035bda" d="M3002.338 63.5L2991 91.253h3.836l2.933-7.784h12.522l3.1 7.784h3.836L3005.892 63.5zm1.636 3.384h.056a11.211 11.211 0 0 0 .451 1.861l4.625 11.789H2998.9l4.569-11.789a6.226 6.226 0 0 0 .508-1.861zM3091.463 71a9.123 9.123 0 0 0-6.938 2.933 10.359 10.359 0 0 0-2.764 7.5q0 4.908 2.538 7.615a9.177 9.177 0 0 0 6.995 2.708 12.532 12.532 0 0 0 7.333-1.918v-2.99a10.762 10.762 0 0 1-6.543 2.2 6.784 6.784 0 0 1-4.964-1.805 7.214 7.214 0 0 1-1.918-5.133h14.892v-1.631a10.034 10.034 0 0 0-2.256-6.995 8.241 8.241 0 0 0-6.375-2.484zm-15.061.113a5.229 5.229 0 0 0-3.328 1.185 7.307 7.307 0 0 0-2.2 3.272h-.057v-4.06h-3.384v19.8h3.384V81.156a8.64 8.64 0 0 1 1.467-5.246 4.353 4.353 0 0 1 3.61-1.918 4.423 4.423 0 0 1 2.538.62v-3.271a6.717 6.717 0 0 0-2.032-.226zm-55.731.338v2.708h11.281l-12.466 16.133v.959h17.314v-2.706h-12.35l12.466-16.189v-.9zm21.322 0V83.3c0 5.641 2.482 8.4 7.5 8.4a6.958 6.958 0 0 0 6.487-3.61h.056v3.159h3.385v-19.8h-3.385v11.399a6.39 6.39 0 0 1-1.579 4.513 5.363 5.363 0 0 1-4.061 1.692q-5.077 0-5.077-6.261V71.454zm49.414 2.2a4.889 4.889 0 0 1 3.836 1.523 5.959 5.959 0 0 1 1.41 4.287h-11.395a7.315 7.315 0 0 1 2.031-4.174 5.847 5.847 0 0 1 4.117-1.634z" transform="translate(-2912.988 -42.573)"/>
        </g>
    </g>
</svg>
